<svg version="1.1" xmlns="http://www.w3.org/2000/svg"  viewBox="0 0 497 369" width="497" height="369"><path d="M0 0 C164.01 0 328.02 0 497 0 C497 121.77 497 243.54 497 369 C332.99 369 168.98 369 0 369 C0 247.23 0 125.46 0 0 Z " transform="translate(0,0)" style="fill: #FDFEFE;"></path><path d="M0 0 C1.33658287 0.00650326 2.67317266 0.01171445 4.00976562 0.015625 C13.87229203 0.09386021 23.46896423 0.4171986 33.07958984 2.74121094 C35.44637934 3.28050564 37.80816981 3.66942513 40.20703125 4.0390625 C41.01720703 4.17699219 41.82738281 4.31492188 42.66210938 4.45703125 C44.31935881 4.73827739 45.981293 4.99306364 47.64648438 5.22265625 C53.53971207 6.29071516 53.53971207 6.29071516 55.67822266 8.9453125 C56.73308363 11.01230339 57.54836435 13.06003427 58.3125 15.25 C58.78171875 16.35859375 59.2509375 17.4671875 59.734375 18.609375 C60.17265625 19.72828125 60.6109375 20.8471875 61.0625 22 C61.57644835 23.30743897 62.09079312 24.61472216 62.60546875 25.921875 C63.01418213 26.96311523 63.01418213 26.96311523 63.43115234 28.02539062 C64.37319931 30.40321112 65.33501552 32.77234304 66.30078125 35.140625 C68.34543554 40.16138721 70.34222265 45.19962584 72.3125 50.25 C72.77785156 51.43464844 73.24320312 52.61929688 73.72265625 53.83984375 C76.77898205 62.26193768 78.6553739 70.86889884 80.5 79.625 C80.87535889 81.39798462 80.87535889 81.39798462 81.25830078 83.20678711 C84.20798799 97.77473179 85.59998613 112.12477709 85.58689499 126.9730835 C85.58590456 129.45763317 85.59915762 131.94177881 85.61587524 134.42626953 C85.66141703 141.47620684 85.68672789 148.52609171 85.69335938 155.57617188 C85.69843232 159.92725828 85.72295268 164.277908 85.75868607 168.62884521 C85.76833456 170.26150872 85.77090005 171.89423337 85.76551437 173.5269165 C85.70651976 192.27369882 88.68489311 210.1430332 102.0546875 224.30078125 C108.35104786 229.73656641 115.46141649 232.12019908 123.7421875 231.66015625 C129.57355689 230.72961858 133.65265963 228.41955389 137.5 223.9375 C145.86739093 211.52210103 147.50802191 194.60944638 150.3125 180.25 C150.97094417 176.91277404 151.63167758 173.57602141 152.29492188 170.23974609 C152.70895147 168.15229446 153.11938752 166.06412525 153.52539062 163.97509766 C155.50306775 153.92414028 157.61944131 144.02289313 161.625 134.5625 C161.93131348 133.83554932 162.23762695 133.10859863 162.55322266 132.35961914 C167.32320767 121.33134463 173.89625698 111.85794327 185.1875 106.75 C193.95437986 103.69652017 202.86418589 104.61367063 211.3125 108.25 C231.64239567 119.10576953 241.50422255 146.52534094 248.00390625 167.40625 C250.36865484 175.64938235 251.56008544 184.16303838 252.89208984 192.62060547 C256.27033101 214.08906816 256.27033101 214.08906816 269.25 230.6875 C275.04618621 233.64368406 282.05385829 233.12887309 288.3125 232.25 C296.49210076 228.91418517 301.51784657 222.23778675 305.41796875 214.5703125 C308.72768453 205.98528555 309.20482434 196.89041007 309.9375 187.8125 C310.00253723 187.01620178 310.06757446 186.21990356 310.13458252 185.3994751 C311.18833892 172.14367245 311.63649524 158.92070363 311.6875 145.625 C311.69517395 144.7903421 311.7028479 143.9556842 311.71075439 143.09573364 C311.82836444 127.16193244 310.23415194 111.56567594 305.1875 96.375 C304.66216771 94.73237561 304.13866699 93.08916409 303.6171875 91.4453125 C303.26672363 90.34944824 303.26672363 90.34944824 302.90917969 89.23144531 C302.2155702 86.92811692 301.70634602 84.62268212 301.3125 82.25 C337.76667575 53.29258478 378.05775776 38.85929185 424.8125 39.25 C428.05207974 39.27660586 431.29160239 39.29654198 434.53125 39.3125 C435.6374469 39.32494751 435.6374469 39.32494751 436.76599121 39.33764648 C439.89857501 39.35275215 442.31586377 39.24887874 445.3125 38.25 C445.3125 105.24 445.3125 172.23 445.3125 241.25 C281.3025 241.25 117.2925 241.25 -51.6875 241.25 C-51.6875 164.36 -51.6875 87.47 -51.6875 8.25 C-47.2325 7.755 -47.2325 7.755 -42.6875 7.25 C-40.60607208 6.69126119 -38.53989674 6.07023561 -36.5 5.375 C-24.22831307 1.43197233 -12.88910767 -0.20267884 0 0 Z " transform="translate(51.6875,127.75)" style="fill: #FEFEFE;"></path><path d="M0 0 C7.40458159 5.49748831 13.13483821 11.59855508 17 20 C17.41121094 20.87140625 17.82242187 21.7428125 18.24609375 22.640625 C25.79350093 42.17509065 21.10248787 64.80918183 13.171875 83.40234375 C9.00721245 92.56245462 3.44290759 100.32046982 -3 108 C-3.95132813 109.19689453 -3.95132813 109.19689453 -4.921875 110.41796875 C-20.18437718 128.84385279 -45.09443734 141.84448807 -68.81298828 144.29003906 C-91.88865304 146.21563694 -113.42629392 145.27038984 -136 140 C-136.72606445 139.83483887 -137.45212891 139.66967773 -138.20019531 139.49951172 C-142.51817034 138.49819393 -146.76112286 137.28884151 -151 136 C-151.9895166 135.70158203 -152.9790332 135.40316406 -153.99853516 135.09570312 C-166.91097177 131.19067948 -179.80550984 127.25940178 -192.5 122.6875 C-193.69625 122.25953125 -194.8925 121.8315625 -196.125 121.390625 C-198.10652854 120.68061118 -200.08720491 119.96843149 -202.06640625 119.25195312 C-203.48883035 118.73720849 -204.91218535 118.22502953 -206.33642578 117.71533203 C-207.78058223 117.1961397 -209.22170488 116.66843119 -210.65966797 116.13232422 C-214.14819273 114.8625425 -217.24880222 113.96206382 -220.9453125 113.3984375 C-224.94098542 112.76218385 -227.57625121 112.18202124 -231 110 C-234.7841496 104.34259847 -236.33283482 97.51672693 -238 91 C-238.49886719 89.23462891 -238.49886719 89.23462891 -239.0078125 87.43359375 C-239.7609205 84.629546 -240.41317623 81.84325583 -241 79 C-241.16773926 78.287229 -241.33547852 77.57445801 -241.50830078 76.84008789 C-242.95541964 70.35758606 -243.30321051 64.19164208 -243.25 57.5625 C-243.25773437 56.60279297 -243.26546875 55.64308594 -243.2734375 54.65429688 C-243.23181011 39.20012992 -239.44929159 25.66275771 -229 14 C-228.43152344 13.36191406 -227.86304688 12.72382812 -227.27734375 12.06640625 C-220.83902025 5.24676974 -213.31087163 0.15807596 -203.71484375 -0.3359375 C-193.76330586 -0.52623337 -185.33086158 0.23666318 -176 4 C-175.35885254 4.25201172 -174.71770508 4.50402344 -174.05712891 4.76367188 C-166.85339069 7.59960186 -159.7496335 10.65678605 -152.66870117 13.78491211 C-126.88323588 25.17290221 -106.04061048 28.05446516 -79.3203125 17.77880859 C-72.35426691 14.99203842 -65.78820576 11.42260258 -59.1875 7.875 C-40.97335459 -1.88058468 -19.69240749 -12.15412112 0 0 Z " transform="translate(353,22)" style="fill: #FEFEFE;"></path><path d="M0 0 C0.763125 0.350625 1.52625 0.70125 2.3125 1.0625 C15.43504857 7.62377428 25.45597449 19.57963481 31 33 C31.39445312 33.94617187 31.78890625 34.89234375 32.1953125 35.8671875 C37.56076164 51.21312244 36.9196174 70.59336901 32 86 C31.77425293 86.71285156 31.54850586 87.42570312 31.31591797 88.16015625 C26.18067778 104.02609499 19.09812545 118.44106096 8 131 C7.20207031 131.95261719 6.40414063 132.90523437 5.58203125 133.88671875 C-14.97998047 157.92154623 -44.23645642 169.34130962 -75 173 C-79.37986413 173.27695766 -83.73720571 173.33363519 -88.125 173.3125 C-89.29208496 173.30976074 -90.45916992 173.30702148 -91.66162109 173.30419922 C-120.81898775 172.95599182 -151.11599296 164.01781934 -178.18115234 153.69238281 C-180.91886742 152.65021369 -183.67802808 151.67037188 -186.4375 150.6875 C-187.63503906 150.26082031 -188.83257812 149.83414063 -190.06640625 149.39453125 C-192.84355913 148.40849708 -195.62250648 147.42765831 -198.40234375 146.44921875 C-199.14621338 146.18729736 -199.89008301 145.92537598 -200.65649414 145.65551758 C-202.09158744 145.15062121 -203.52695372 144.64649979 -204.96264648 144.14331055 C-212.07426078 141.64273932 -219.09189658 139.02229525 -226 136 C-225.65388672 136.78141357 -225.65388672 136.78141357 -225.30078125 137.57861328 C-206.8292498 179.47723032 -199.42502298 218.90430446 -199.37835693 264.4788208 C-199.36940893 271.03249855 -199.33345519 277.5859663 -199.2861824 284.13946724 C-199.27387615 286.38480972 -199.2743268 288.62986064 -199.27645874 290.87522888 C-199.23560618 306.11659336 -198.4976412 321.99680318 -188 334 C-184.54601023 336.56835136 -182.29704625 337.36831825 -178 337 C-175.14069191 332.29910365 -173.01520371 327.80772252 -171.5 322.5 C-171.28988281 321.77498291 -171.07976562 321.04996582 -170.86328125 320.30297852 C-168.65586584 312.3220012 -167.37436767 304.19824808 -166.01953125 296.0390625 C-156.27280169 237.59664708 -156.27280169 237.59664708 -133.375 220.3125 C-120.58223604 211.95021351 -107.38621604 209.74542846 -92.46875 212.69921875 C-72.32186777 218.85232582 -62.01627681 234.08044172 -52.25 251.5625 C-48.94734864 257.87170295 -46.32232416 264.27251721 -44 271 C-43.75894531 271.69335449 -43.51789063 272.38670898 -43.26953125 273.10107422 C-38.16547696 287.95011541 -34.69144916 302.94710141 -33 318.5625 C-32.19884134 325.56732083 -31.05790356 333.02560661 -26.64453125 338.76171875 C-23.94321473 340.79572668 -21.4955492 340.53250427 -18.21875 340.41015625 C-14.54640035 339.7312888 -13.14080572 337.95934909 -11 335 C-1.08775932 315.17551864 -2.70734351 288.75411904 -2.6875 267.0625 C-2.68409607 266.18661224 -2.68069214 265.31072449 -2.67718506 264.40829468 C-2.64481302 249.8873915 -2.68498288 234.76667582 -7.625 220.9375 C-7.85445313 220.25107422 -8.08390625 219.56464844 -8.3203125 218.85742188 C-8.86548424 217.23326441 -9.43026317 215.61570407 -10 214 C-14.02077499 214.62505102 -14.02077499 214.62505102 -17.98046875 215.54296875 C-23.91718865 216.88648176 -31.51310418 217.29407703 -37 214.375 C-41.1039314 211.12605431 -44.30610558 208.08168327 -46 203 C-47.15158794 191.59927938 -47.15158794 191.59927938 -43.9375 187.5 C-37.8738974 182.33948715 -33.85562502 180.21773062 -25.83984375 180.55859375 C-16.92798263 181.94379362 -11.26024229 186.9805376 -6 194 C-2.15469879 193.40499958 -0.04329876 191.61678533 2.9375 189.1875 C38.92692507 161.2554089 87.65434183 149.60759461 132.56396484 154.72412109 C135.38636286 155.09079272 138.19492934 155.51888528 141 156 C141.38218767 157.65614657 141.71395102 159.32457024 142 161 C141 162 141 162 137.8515625 162.08178711 C136.44265923 162.06796702 135.03379771 162.0494438 133.625 162.02734375 C132.06510669 162.01465925 130.50521071 162.00230131 128.9453125 161.99023438 C126.49958796 161.96579649 124.05400656 161.9382553 121.60839844 161.90405273 C105.82772776 161.69726929 90.80906514 162.91400573 75.4375 166.75 C73.83237549 167.14578247 73.83237549 167.14578247 72.19482422 167.54956055 C63.50488047 169.75448143 55.21233805 172.41173519 47 176 C46.25057129 176.32339355 45.50114258 176.64678711 44.72900391 176.97998047 C28.63346506 184.01296699 14.86085873 193.31397484 1 204 C1.96888169 208.93248861 3.18080822 213.6329128 4.78160095 218.40164185 C10.11729169 234.45476598 11.53158983 250.53864859 11.375 267.375 C11.3713443 268.24198517 11.3676886 269.10897034 11.36392212 270.00222778 C11.29956937 283.18344014 10.72596706 296.29796531 9.6875 309.4375 C9.62882751 310.20882263 9.57015503 310.98014526 9.50970459 311.77484131 C8.27199949 327.55547529 5.6511006 340.67539896 -6.81640625 351.37109375 C-13.28355862 356.19542745 -20.23210645 355.90062534 -28 355 C-35.61438764 352.08293882 -40.788747 345.76848436 -44.1484375 338.5234375 C-46.8021443 331.44023513 -47.82447699 324.22003648 -48.86279297 316.77294922 C-52.71183806 289.37981161 -61.5132223 254.85478553 -82.5625 235.3125 C-90.97545929 228.98786394 -100.66705443 227.05304542 -111 228 C-119.68423199 229.94148993 -127.26112778 235.2733933 -132.13427734 242.73730469 C-143.28628471 261.862128 -147.03695683 283.88525064 -150.87475586 305.38232422 C-157.17081315 340.55272471 -157.17081315 340.55272471 -167.5625 350.4375 C-173.52534925 354.25983926 -179.04873698 354.98409129 -186 354 C-196.81003642 350.50223025 -204.3056368 343.23304151 -209.8125 333.4375 C-215.14755732 321.26212116 -216.58611922 308.5744224 -216.51642036 295.42974281 C-216.50345296 292.96461038 -216.515381 290.50054443 -216.53245544 288.03544617 C-216.55885663 283.67596814 -216.56476362 279.31676363 -216.56335449 274.95721436 C-216.26517148 242.83431193 -216.26517148 242.83431193 -220 211 C-220.33632446 209.10785767 -220.33632446 209.10785767 -220.67944336 207.17749023 C-221.28643174 203.95454512 -221.96135129 200.76050367 -222.6875 197.5625 C-222.93951172 196.44343262 -223.19152344 195.32436523 -223.45117188 194.17138672 C-226.93785702 179.30256496 -231.85062425 164.87135769 -238.55078125 151.140625 C-240.94212612 145.9583035 -242.84551193 140.59694539 -244.80078125 135.23828125 C-245.87203635 132.16528927 -245.87203635 132.16528927 -247 130 C-249.57945533 129.26124912 -249.57945533 129.26124912 -252.71484375 128.74609375 C-253.87564453 128.53146484 -255.03644531 128.31683594 -256.23242188 128.09570312 C-257.45509766 127.87849609 -258.67777344 127.66128906 -259.9375 127.4375 C-262.34290217 127.0011949 -264.74787486 126.56251316 -267.15234375 126.12109375 C-268.22476318 125.9295874 -269.29718262 125.73808105 -270.40209961 125.54077148 C-273 125 -273 125 -275 124 C-297.4884825 120.72290329 -322.10700402 121.36527515 -343.41015625 129.6875 C-346.98799172 130.99560959 -348.46451964 131.21532137 -352 130 C-351.90625 128.1875 -351.90625 128.1875 -351 126 C-323.65311905 110.63658373 -285.41356384 111.97681312 -256 119 C-253.98625422 119.62391696 -251.97718637 120.26844104 -250 121 C-250.18175781 120.45472656 -250.36351562 119.90945312 -250.55078125 119.34765625 C-251.08437557 117.74687328 -251.61541045 116.14523595 -252.14453125 114.54296875 C-252.66448707 112.99734664 -253.19956782 111.45656147 -253.76171875 109.92578125 C-257.98674262 98.18960384 -259.5253173 86.3694591 -259.44604492 73.96557617 C-259.43748405 71.93371549 -259.46654368 69.90463677 -259.49804688 67.87304688 C-259.56376283 55.82094047 -256.92397186 44.62374041 -251.4375 33.875 C-251.10161865 33.21250244 -250.7657373 32.55000488 -250.41967773 31.86743164 C-243.20761541 18.37426255 -231.00539632 7.94505695 -217 2 C-216.13632813 1.63261719 -215.27265625 1.26523438 -214.3828125 0.88671875 C-189.13368888 -5.73170049 -165.06070456 7.02339794 -142.671875 16.91015625 C-139.4633239 18.31659513 -136.24585608 19.68216548 -133 21 C-131.99195313 21.41121094 -130.98390625 21.82242187 -129.9453125 22.24609375 C-114.60766256 27.77300252 -97.99259845 26.16947359 -83.35546875 19.33984375 C-79.97694003 17.69931442 -76.64882428 15.96829033 -73.32519531 14.21972656 C-23.66304571 -11.83152285 -23.66304571 -11.83152285 0 0 Z M-66.57666016 27.54003906 C-86.86734073 38.57013376 -107.12265487 44.73539991 -130.1796875 38.52734375 C-139.11242295 35.85807211 -147.63633587 31.94765562 -156.17041016 28.23095703 C-162.73562215 25.37489156 -169.33975429 22.62644952 -176 20 C-177.61455078 19.34837891 -177.61455078 19.34837891 -179.26171875 18.68359375 C-189.32690547 15.05911622 -203.00282326 13.42404148 -213.1875 17.625 C-215.17262402 18.70751474 -215.17262402 18.70751474 -217 20 C-217.67933594 20.44730469 -218.35867187 20.89460938 -219.05859375 21.35546875 C-221.13057418 22.81643038 -223.06679817 24.36054958 -225 26 C-225.59683594 26.50144531 -226.19367188 27.00289062 -226.80859375 27.51953125 C-238.22742007 37.97195356 -242.51918693 51.96655562 -243.30859375 66.93359375 C-243.75878913 81.04014441 -241.73886939 93.6564173 -237.78955078 107.18554688 C-237.06906681 109.75380268 -236.48452196 112.31317878 -235.93359375 114.921875 C-234.78822958 119.66778076 -233.63732499 124.31671156 -229.26416016 127.10791016 C-224.64634543 129.18587113 -219.7874951 130.22072381 -214.86083984 131.30322266 C-209.61023449 132.58204393 -204.54150901 134.42459954 -199.4375 136.1875 C-193.06709185 138.34463118 -186.69480421 140.43350529 -180.23095703 142.29467773 C-177.90167649 143.03108521 -175.68474547 143.91910498 -173.4375 144.875 C-166.88971477 147.55734816 -160.11063422 149.44998866 -153.30615234 151.35449219 C-151.78440834 151.78043874 -150.26386171 152.2106895 -148.74462891 152.64550781 C-109.69711271 163.78262669 -67.31271341 167.01526693 -30.6484375 147.1875 C-7.73718122 133.80866422 8.13369187 113.86504036 17 89 C17.41765625 87.87207031 17.8353125 86.74414062 18.265625 85.58203125 C23.61439751 68.91420142 23.42759886 49.02190778 15.64453125 33.25390625 C10.00371981 23.07624914 1.96668319 16.2152041 -8.8359375 11.85546875 C-29.30620428 6.32091514 -49.19419083 18.09037586 -66.57666016 27.54003906 Z " transform="translate(353,6)" style="fill: #2F6C92;"></path><path d="M0 0 C4.67377737 0.91642694 7.81369366 3.32083645 11.1875 6.625 C12.6875 9.5 12.6875 9.5 13.1875 11.625 C7.87553833 14.28098084 4.14501429 15.39371152 -1.8125 14.625 C-5.03660993 12.22406707 -6.50700034 10.68249882 -7.625 6.8125 C-7.686875 6.090625 -7.74875 5.36875 -7.8125 4.625 C-5.2600065 2.22265318 -3.45331525 0.76740339 0 0 Z " transform="translate(324.8125,197.375)" style="fill: #F0F4F5;"></path><path d="M0 0 C2.31 0.66 4.62 1.32 7 2 C5.68 3.32 4.36 4.64 3 6 C1.5 4.6875 1.5 4.6875 0 3 C0 2.01 0 1.02 0 0 Z " transform="translate(127,142)" style="fill: #E3ECEE;"></path><path d="M0 0 C0.99 0.33 1.98 0.66 3 1 C1.9024777 3.99324263 1.32317108 4.84610901 -1.625 6.25 C-2.40875 6.4975 -3.1925 6.745 -4 7 C-2.68 4.69 -1.36 2.38 0 0 Z " transform="translate(109,28)" style="fill: #3F7199;"></path><path d="M0 0 C6.57403846 -0.37211538 6.57403846 -0.37211538 8.73046875 1.51171875 C9.35888672 2.24841797 9.35888672 2.24841797 10 3 C8.5199159 2.88637738 7.04089926 2.75877092 5.5625 2.625 C4.73878906 2.55539063 3.91507812 2.48578125 3.06640625 2.4140625 C2.38449219 2.27742187 1.70257813 2.14078125 1 2 C0.67 1.34 0.34 0.68 0 0 Z " transform="translate(86,130)" style="fill: #427495;"></path><path d="M0 0 C0.66 0.99 1.32 1.98 2 3 C0.68 4.32 -0.64 5.64 -2 7 C-2.99 6.67 -3.98 6.34 -5 6 C-3.35 4.02 -1.7 2.04 0 0 Z " transform="translate(353,125)" style="fill: #447698;"></path><path d="M0 0 C0.66 0.33 1.32 0.66 2 1 C-0.31 3.31 -2.62 5.62 -5 8 C-5.33 7.01 -5.66 6.02 -6 5 C-4.02 3.35 -2.04 1.7 0 0 Z " transform="translate(359,205)" style="fill: #E0EDF1;"></path><path d="M0 0 C0.66 0 1.32 0 2 0 C1.67 1.32 1.34 2.64 1 4 C2.98 3.67 4.96 3.34 7 3 C4 5 4 5 1.3125 4.625 C0.549375 4.41875 -0.21375 4.2125 -1 4 C-0.67 2.68 -0.34 1.36 0 0 Z " transform="translate(2,132)" style="fill: #477796;"></path></svg>